<?xml version="1.0" standalone="no"?>
<!DOCTYPE svg PUBLIC "-//W3C//DTD SVG 20010904//EN"
 "http://www.w3.org/TR/2001/REC-SVG-20010904/DTD/svg10.dtd">
<svg version="1.0" xmlns="http://www.w3.org/2000/svg"
 width="500.000000pt" height="500.000000pt" viewBox="0 0 500.000000 500.000000"
 preserveAspectRatio="xMidYMid meet">
<metadata>
Created by potrace 1.11, written by Peter Selinger 2001-2013
</metadata>
<g transform="translate(0.000000,500.000000) scale(0.100000,-0.100000)"
fill="#000000" stroke="none">
<path d="M713 3500 c-151 -39 -301 -143 -389 -270 -32 -46 -96 -170 -88 -170
3 0 0 -9 -6 -20 -27 -50 -31 -145 -32 -693 0 -519 -1 -569 -16 -574 -18 -7
-37 -26 -62 -63 -8 -12 -25 -34 -38 -48 -28 -34 -35 -59 -30 -117 2 -25 -1
-45 -5 -45 -5 0 -2 -7 7 -15 13 -13 116 -15 843 -13 l828 3 5 64 c5 68 -4 100
-41 134 -10 10 -19 21 -19 25 0 10 -57 69 -72 74 -10 4 -13 121 -14 587 -1
389 -5 586 -12 593 -6 6 -8 17 -5 24 3 8 2 22 -2 32 -5 9 -9 22 -11 27 -12 39
-32 85 -43 99 -7 9 -10 16 -7 16 13 0 -78 125 -124 170 -41 42 -154 126 -173
128 -4 1 -20 8 -35 16 -108 55 -319 72 -459 36z m244 -44 c61 -6 154 -31 196
-53 18 -9 35 -16 40 -15 4 1 7 -3 7 -8 0 -5 6 -10 13 -10 24 -1 177 -138 177
-160 0 -6 4 -10 8 -10 4 0 24 -30 44 -67 48 -92 68 -155 72 -228 1 -22 5 -45
9 -52 4 -6 3 -14 -3 -18 -7 -4 -7 -12 0 -26 8 -14 7 -19 -1 -19 -8 0 -8 -4 1
-15 10 -12 10 -15 -1 -15 -9 0 -10 -3 -4 -8 12 -8 13 -27 3 -37 -4 -4 -3 -16
2 -26 7 -11 7 -20 0 -24 -5 -3 -6 -13 -3 -22 9 -23 8 -66 -1 -81 -4 -7 -3 -12
2 -12 7 0 8 -33 2 -50 -1 -3 -1 -9 0 -15 7 -32 6 -56 -2 -61 -4 -3 -5 -11 -1
-17 11 -18 12 -37 2 -37 -5 0 -4 -11 1 -25 7 -18 6 -25 -2 -25 -9 0 -9 -3 0
-12 8 -8 9 -15 1 -25 -7 -7 -7 -13 -2 -13 5 0 9 -9 9 -20 0 -11 -4 -20 -9 -20
-5 0 -5 -6 0 -12 13 -17 12 -48 -1 -48 -6 0 -5 -4 2 -9 17 -11 17 -21 0 -32
-11 -7 -11 -9 1 -9 10 0 11 -3 2 -13 -6 -8 -8 -17 -4 -21 11 -10 12 -36 2 -36
-5 0 -4 -11 1 -25 7 -18 6 -25 -2 -25 -9 0 -9 -3 0 -12 8 -8 9 -15 1 -25 -7
-7 -7 -13 -2 -13 5 0 9 -9 9 -20 0 -11 -4 -20 -9 -20 -5 0 -4 -7 4 -16 10 -13
10 -17 -2 -25 -8 -5 -9 -9 -2 -9 13 0 12 -18 -1 -39 -7 -10 -5 -12 3 -6 10 6
11 3 3 -11 -10 -18 -33 -19 -629 -18 -340 1 -621 2 -625 3 -3 0 -6 84 -6 185
1 101 -2 188 -6 195 -4 6 -4 11 1 11 10 0 9 132 -1 148 -4 7 -4 12 1 12 4 0 8
135 7 300 0 165 2 300 5 300 4 0 7 12 8 28 0 15 6 41 13 57 6 17 10 30 9 30
-1 0 4 11 11 25 8 14 13 28 12 33 -1 4 2 7 7 7 5 0 11 10 15 23 3 12 17 34 31
49 14 15 25 30 25 33 0 7 67 72 106 103 90 70 207 118 317 128 34 3 64 7 66
10 2 2 7 1 11 -1 5 -3 30 -7 57 -9z m-655 -1751 c5 -7 8 -7 8 0 0 11 231 11
249 0 6 -3 11 -3 11 2 0 9 212 8 235 -1 8 -3 15 -2 15 2 0 11 514 9 522 -3 5
-7 8 -6 8 0 0 13 80 14 80 2 0 -5 5 -5 10 -2 15 9 100 10 128 1 12 -4 22 -14
22 -22 0 -8 4 -14 9 -14 5 0 11 -6 14 -14 4 -11 -92 -13 -576 -14 -320 0 -592
-1 -604 -1 -25 -1 -41 -37 -23 -55 8 -8 182 -12 628 -16 671 -5 618 -1 613
-53 -1 -12 -130 -14 -763 -13 l-761 1 -3 33 -2 32 92 0 c94 0 116 8 116 41 0
26 -15 31 -91 32 -38 0 -69 5 -69 10 0 5 12 22 28 36 28 27 89 37 104 16z"/>
<path d="M800 3380 c-8 -5 -17 -7 -22 -4 -4 3 -24 -2 -44 -11 -20 -8 -40 -12
-45 -9 -5 3 -9 0 -9 -7 0 -7 -3 -9 -6 -6 -4 4 -19 -2 -34 -13 -16 -11 -33 -20
-39 -20 -7 0 -14 -7 -17 -15 -4 -8 -9 -13 -13 -10 -20 12 -161 -151 -182 -210
-7 -19 -16 -35 -19 -35 -4 0 -7 -6 -7 -12 0 -7 -6 -33 -13 -58 -8 -25 -14 -61
-14 -80 -1 -19 -5 -41 -9 -47 -5 -8 -4 -13 3 -13 6 0 8 -5 5 -10 -3 -6 3 -14
14 -18 25 -9 1072 -9 1087 1 12 7 25 67 14 67 -3 0 -7 18 -9 41 -10 185 -180
384 -386 454 -56 19 -232 30 -255 15z m55 -219 c1 -140 -1 -153 -18 -163 -17
-9 -35 6 -133 103 -112 112 -112 112 -91 129 48 37 202 94 232 86 6 -2 10 -63
10 -155z m141 144 c10 -2 19 -4 19 -5 0 -1 8 -3 18 -5 10 -2 26 -7 35 -11 9
-4 19 -8 22 -8 3 -1 27 -14 53 -30 l48 -28 -91 -92 c-50 -50 -95 -98 -100
-106 -5 -8 -10 -11 -10 -6 0 6 -6 2 -13 -8 -11 -15 -18 -16 -34 -8 -18 10 -19
20 -18 164 2 84 3 154 4 156 0 1 11 0 24 -3 13 -4 32 -8 43 -10z m-346 -252
l107 -107 -23 -41 -23 -40 -153 0 c-147 0 -153 1 -151 20 6 61 33 146 54 172
6 7 8 13 3 13 -5 0 -4 4 1 8 6 4 23 24 38 45 15 20 31 37 35 37 3 0 54 -48
112 -107z m616 85 c33 -38 73 -105 80 -135 4 -15 9 -32 12 -38 4 -5 7 -16 9
-25 10 -62 10 -70 0 -71 -7 -1 -76 -2 -155 -3 l-143 -2 -22 41 -23 40 106 107
c58 59 108 108 111 108 3 0 14 -10 25 -22z m-312 -229 c47 -37 35 -46 -64 -45
-49 1 -90 5 -90 9 0 4 11 19 25 32 31 32 91 34 129 4z"/>
<path d="M339 2707 c-6 -10 -9 -28 -6 -38 3 -10 1 -22 -5 -25 -6 -4 -5 -10 3
-16 10 -6 10 -11 3 -14 -7 -3 -9 -18 -4 -45 4 -23 3 -42 -2 -45 -6 -4 -5 -10
3 -16 8 -5 10 -11 4 -14 -6 -2 -8 -96 -5 -265 3 -143 1 -263 -4 -266 -4 -3 -2
-10 5 -15 11 -7 11 -11 2 -14 -9 -4 -9 -13 -2 -31 5 -13 7 -28 4 -33 -11 -17
36 -21 266 -20 170 1 240 5 247 13 6 7 10 180 10 428 l1 416 -22 11 c-14 7
-110 10 -255 10 -220 -1 -234 -2 -243 -21z m444 -418 l0 -364 -190 -1 -190 -1
0 363 c0 318 2 363 15 366 9 2 94 3 190 2 l175 -1 0 -364z"/>
<path d="M495 2581 c-27 -8 -30 -48 -4 -61 15 -9 24 -8 35 1 31 25 8 71 -31
60z"/>
<path d="M574 2494 c-53 -52 -97 -103 -99 -112 -3 -21 13 -42 32 -42 15 0 213
193 213 207 0 14 -14 29 -33 36 -13 5 -41 -17 -113 -89z"/>
<path d="M937 2712 c-13 -14 -15 -78 -15 -422 0 -223 4 -413 9 -422 8 -15 35
-17 253 -18 243 -1 243 -1 257 22 12 19 14 97 14 427 -1 366 -3 405 -18 416
-12 9 -83 12 -251 13 -207 0 -236 -2 -249 -16z m433 -64 c3 -3 5 -168 5 -365
l0 -358 -187 -1 c-165 -1 -188 1 -189 15 0 9 -2 171 -2 360 -2 314 -1 344 15
350 23 8 352 8 358 -1z"/>
<path d="M1090 2582 c-24 -8 -29 -23 -17 -49 8 -17 15 -22 31 -17 26 8 26 8
30 31 5 22 -21 42 -44 35z"/>
<path d="M1274 2582 c-20 -3 -214 -186 -214 -201 0 -4 6 -16 14 -26 11 -15 18
-17 35 -10 24 12 178 161 192 186 13 26 -2 55 -27 51z"/>
<path d="M1810 3001 l0 -221 25 0 24 0 3 156 3 157 50 -101 c44 -89 53 -102
75 -102 22 1 32 14 75 103 l50 102 3 -157 3 -158 24 0 25 0 0 218 0 218 -22 1
c-20 2 -32 -17 -88 -128 -36 -71 -68 -128 -72 -127 -4 2 -36 59 -71 128 -49
96 -69 126 -85 128 -22 3 -22 3 -22 -217z"/>
<path d="M2333 3200 c-58 -35 -68 -61 -70 -193 -3 -136 11 -178 68 -211 41
-24 117 -24 157 -1 57 34 67 66 67 207 0 112 -2 130 -21 155 -44 60 -139 81
-201 43z m164 -81 c18 -35 12 -227 -7 -257 -22 -32 -72 -46 -116 -32 -49 17
-64 55 -64 171 0 102 18 156 54 164 11 2 30 6 41 8 27 5 77 -24 92 -54z"/>
<path d="M2650 3050 c0 -200 8 -227 71 -258 68 -34 140 -13 179 51 18 28 20
51 20 204 l0 173 -25 -2 -25 -2 0 -169 0 -169 -30 -29 c-23 -23 -36 -29 -57
-26 -78 14 -83 26 -86 227 -2 163 -2 165 -24 168 l-23 3 0 -171z"/>
<path d="M3014 3003 l1 -218 24 0 25 0 0 163 c-1 89 2 160 5 157 3 -3 46 -76
96 -163 75 -129 95 -158 115 -160 l25 -3 -2 203 c0 112 -2 211 -2 221 -1 11
-9 17 -24 17 -23 0 -23 -1 -24 -137 -1 -76 -2 -151 -2 -168 l-1 -30 -23 40
c-13 22 -57 97 -97 168 -58 99 -79 127 -95 127 -21 0 -21 -3 -21 -217z"/>
<path d="M3380 3194 c0 -23 4 -24 60 -24 l60 0 0 -195 0 -195 25 0 25 0 0 195
0 195 58 0 c66 0 72 3 65 30 -5 18 -15 19 -149 18 l-144 -1 0 -23z"/>
<path d="M3749 3209 c-1 -5 -2 -15 -3 -21 -1 -9 27 -14 96 -18 l98 -5 -100
-175 c-55 -96 -100 -182 -100 -192 0 -16 12 -18 135 -18 l135 0 0 24 c0 23 -2
23 -102 23 -57 0 -102 4 -101 9 1 5 45 84 97 176 53 92 96 176 96 187 0 17 -9
19 -125 19 -70 0 -126 -3 -126 -9z"/>
<path d="M4099 3213 c-1 -4 -2 -104 -3 -220 l-1 -213 25 0 25 0 0 218 0 217
-22 3 c-13 2 -24 0 -24 -5z"/>
<path d="M4310 3202 c-56 -31 -71 -73 -71 -201 -1 -88 3 -119 18 -148 30 -61
101 -90 173 -70 82 22 103 67 104 218 0 97 -3 121 -20 150 -37 64 -133 88
-204 51z m147 -55 c22 -22 29 -67 28 -164 -2 -101 -16 -136 -61 -153 -29 -11
-81 -5 -102 13 -25 20 -33 60 -34 158 0 115 15 154 65 167 35 10 84 0 104 -21z"/>
<path d="M4629 3205 c-1 -5 -2 -103 -3 -217 l-1 -208 25 0 26 0 -1 160 c0 88
2 160 6 160 3 0 47 -72 98 -160 75 -129 97 -160 114 -160 22 0 22 1 22 218 l0
217 -22 3 c-14 2 -23 -2 -24 -10 -1 -7 -2 -80 -4 -163 -1 -82 -3 -152 -4 -155
-1 -3 -7 6 -14 20 -7 14 -50 89 -96 167 -63 109 -87 141 -102 140 -10 -1 -20
-6 -20 -12z"/>
<path d="M1915 2698 c-3 -7 -34 -101 -71 -208 -37 -107 -69 -201 -72 -208 -3
-10 3 -13 23 -10 24 3 31 11 45 53 l17 50 81 2 81 2 18 -55 c15 -48 20 -54 44
-54 l27 0 -74 216 c-41 119 -74 218 -74 220 0 10 -41 2 -45 -8z m60 -174 c13
-43 25 -84 25 -89 0 -6 -26 -10 -62 -10 -35 0 -63 4 -62 8 5 40 61 192 66 183
4 -7 19 -48 33 -92z"/>
<path d="M2169 2708 c-1 -2 -3 -101 -4 -221 l-2 -218 115 3 c109 3 115 4 117
24 1 20 -3 21 -79 22 -45 0 -86 0 -92 1 -8 1 -11 55 -10 184 1 100 0 188 -2
195 -3 10 -39 18 -43 10z"/>
<path d="M2478 2703 c-3 -4 -4 -82 -3 -173 2 -180 9 -211 61 -245 35 -23 115
-23 149 -1 55 36 60 56 63 246 l4 176 -25 2 -25 2 -4 -174 c-3 -152 -5 -176
-22 -194 -37 -42 -112 -36 -137 10 -9 15 -13 77 -14 188 -1 160 -1 165 -22
168 -12 2 -23 0 -25 -5z"/>
<path d="M2847 2703 c-2 -5 -4 -104 -4 -220 l0 -213 24 0 c27 0 25 -11 25 173
0 75 2 137 4 137 2 0 26 -45 54 -100 43 -86 54 -100 75 -100 21 0 30 12 61 77
72 152 70 152 69 -15 -1 -81 1 -153 3 -159 2 -7 14 -13 26 -13 22 0 22 0 21
218 0 213 0 217 -21 220 -18 3 -32 -18 -90 -132 l-70 -136 -70 135 c-47 93
-74 135 -86 135 -9 0 -19 -3 -21 -7z"/>
<path d="M3300 2490 l0 -220 25 0 25 0 0 220 0 220 -25 0 -25 0 0 -220z"/>
<path d="M3450 2491 l0 -221 25 0 25 0 0 168 0 167 97 -167 c81 -141 101 -168
120 -168 l23 0 -2 218 c-3 216 -3 217 -25 220 -22 3 -23 3 -25 -164 l-3 -167
-96 164 c-71 122 -101 165 -117 167 -22 3 -22 3 -22 -217z"/>
<path d="M3839 2693 c-2 -10 -4 -108 -4 -218 l0 -200 26 -3 26 -3 -2 213 c-1
117 -3 216 -4 221 -2 15 -39 6 -42 -10z"/>
<path d="M3980 2543 c0 -140 3 -174 18 -202 33 -65 95 -90 165 -66 75 26 87
58 88 234 2 211 3 203 -23 199 -23 -3 -23 -5 -24 -159 -1 -86 -4 -168 -8 -183
-14 -56 -102 -69 -143 -22 -22 26 -23 34 -23 197 l0 169 -25 0 -25 0 0 -167z"/>
<path d="M4348 2698 c-2 -7 -4 -105 -3 -218 l0 -205 26 -3 25 -3 0 151 c-1 84
2 154 5 156 3 2 17 -20 30 -49 13 -28 36 -75 52 -103 40 -75 55 -66 122 65
l54 106 0 -162 1 -163 25 0 25 0 0 220 0 220 -22 0 c-19 0 -34 -22 -92 -137
l-69 -137 -69 137 c-51 103 -73 137 -87 137 -10 0 -21 -6 -23 -12z"/>
<path d="M1811 2194 c-23 -29 -26 -58 -22 -172 2 -37 44 -72 88 -72 21 0 46 6
55 14 34 25 52 119 26 128 -25 9 -71 3 -76 -9 -2 -7 3 -14 12 -14 9 -1 22 -2
29 -3 17 -1 17 -41 0 -66 -20 -28 -78 -28 -94 1 -12 23 -15 124 -5 156 9 27
45 42 80 32 16 -5 34 -5 39 -2 19 11 -27 33 -69 33 -34 0 -47 -5 -63 -26z"/>
<path d="M2025 2088 l0 -133 73 -3 c58 -2 72 0 72 12 0 11 -14 16 -57 18 l-58
3 1 118 c0 100 -2 117 -16 117 -13 0 -15 -18 -15 -132z"/>
<path d="M2279 2193 c-25 -67 -79 -226 -79 -234 0 -24 30 -5 40 26 10 31 15
34 48 34 57 -1 69 -7 76 -39 3 -18 12 -30 21 -30 8 0 15 3 15 7 0 4 -19 65
-42 135 -44 131 -59 152 -79 101z m57 -141 c-6 -5 -66 -6 -71 0 -4 4 9 49 31
108 3 9 13 -9 24 -45 11 -32 18 -61 16 -63z"/>
<path d="M2440 2205 c0 -10 15 -15 59 -17 l58 -3 -63 -110 c-35 -60 -64 -113
-64 -117 0 -5 38 -8 85 -8 69 0 85 3 85 15 0 12 -14 15 -64 15 l-65 0 65 112
c35 62 64 116 64 120 0 4 -36 8 -80 8 -63 0 -80 -3 -80 -15z"/>
<path d="M2659 2205 c0 -8 -1 -64 -1 -125 0 -60 1 -114 1 -120 1 -6 33 -10 76
-10 60 0 75 3 75 15 0 12 -13 15 -61 15 l-60 0 3 47 3 47 45 2 c57 2 55 1 41
18 -8 10 -26 13 -52 11 l-39 -4 0 45 0 44 60 0 c47 0 60 3 60 15 0 12 -15 15
-75 15 -60 0 -75 -3 -76 -15z"/>
<path d="M1763 1733 c-3 -6 -3 -20 -1 -30 3 -17 67 -18 1571 -18 862 0 1567 2
1568 5 5 34 4 50 -5 51 -6 1 -712 2 -1570 3 -1202 1 -1560 -2 -1563 -11z"/>
<path d="M1760 1553 l0 -33 1570 0 c1039 0 1570 3 1571 10 1 6 2 20 2 33 l1
22 -1572 0 -1572 0 0 -32z"/>
</g>
</svg>
