<svg xmlns="http://www.w3.org/2000/svg" viewBox="0 0 333334 274205" shape-rendering="geometricPrecision" text-rendering="geometricPrecision" image-rendering="optimizeQuality" fill-rule="evenodd" clip-rule="evenodd"><path d="M143102 102069c2162 3619 3326 7476 3326 11472 0 2976-645 5872-1869 8653-5344-2536-10987-4545-16860-5962 6921-4040 12234-8852 15403-14163zm-35969 26094c40328 0 73021 32693 73021 73021s-32693 73021-73021 73021-73020-32693-73020-73021 32692-73021 73020-73021zm13793 39558h8926c1080 0 1957 832 1957 1858 0 375-117 725-319 1017l-36176 63077c-354 617-1021 967-1712 967v5h-8926c-1080 0-1957-832-1957-1858 0-375 117-725 320-1017l36176-63077c354-617 1021-967 1712-967v-5zm-55248 17365c0-1498 177-2979 527-4431 346-1422 870-2822 1569-4182l-3-2c722-1415 1646-2675 2760-3769 1099-1080 2395-1998 3874-2752 1452-749 3041-1311 4756-1680 1693-367 3499-548 5410-548 2826 0 5386 392 7671 1170 2331 797 4356 1998 6063 3594 1710 1604 2996 3472 3847 5597l37 100c812 2072 1220 4374 1220 6903 0 2587-420 4935-1256 7037-852 2141-2137 4016-3847 5618-1707 1595-3732 2794-6064 3593-2285 778-4844 1170-7671 1170-1911 0-3717-182-5410-549-1729-372-3317-931-4756-1672l-143-81c-1420-737-2665-1631-3730-2677-1118-1096-2042-2358-2762-3769l-51-111c-669-1326-1176-2696-1513-4087l-14-63c-343-1449-515-2922-515-4410zm15886 81c0 1548 126 2849 372 3898 221 941 544 1689 957 2229l35 49c172 217 376 381 605 486 267 120 617 183 1040 183 732 0 1269-228 1591-676l31-43c413-540 735-1287 956-2229 248-1055 374-2356 374-3898 0-1522-126-2813-370-3859h-2c-224-951-548-1712-965-2268l-7-9c-156-212-352-372-574-472-267-119-615-182-1034-182-425 0-781 65-1063 187l2 2c-239 106-448 270-618 486l2 2c-413 540-734 1289-956 2234l-15 59c-238 1040-358 2317-358 3820zm29291 31962c0-3044 694-5933 2079-8656 713-1410 1632-2662 2741-3754 1102-1087 2398-2017 3880-2781l97-48c1442-725 2998-1274 4664-1639 1689-369 3484-556 5390-556 5793 0 10387 1602 13785 4798 1706 1605 2986 3481 3839 5619 837 2103 1257 4445 1257 7015 0 2573-419 4916-1255 7017-851 2135-2135 4012-3841 5617-3397 3197-7992 4799-13785 4799-1904 0-3700-187-5388-556-1700-372-3283-934-4748-1680l-15-9v2c-1481-765-2778-1694-3880-2781-1109-1092-2028-2348-2741-3754-687-1352-1208-2759-1554-4211-350-1459-525-2942-525-4445zm15885 97c0 1552 126 2860 372 3917 224 958 545 1716 956 2257l12 17 4-2c158 214 353 374 578 474 269 120 620 181 1044 181 759 0 1323-231 1675-686l43-53c387-537 688-1270 904-2189 248-1058 374-2368 374-3917 0-2910-442-4982-1323-6192-175-224-384-394-615-498l-4 5c-282-124-635-189-1053-189-742 0-1281 226-1605 676l-87 112c-384 537-686 1267-900 2180-248 1058-374 2363-374 3905zm-88404-69939C15505 140788 0 128112 0 113541c0-3996 1170-7851 3331-11472 7923 13278 29232 23453 55646 26183-7864 5202-14837 11636-20642 19035zm291665 11950c2162 3627 3331 7477 3331 11472 0 21191-32789 38382-73217 38382-40428-2-73211-17191-73211-38382 0-3995 1164-7845 3326-11472 9304 15593 37078 26916 69885 26916 32813 0 60581-11323 69885-26916zm-59248-56124l-150-9500c2149-81 3909-738 5263-1954 1370-1210 2121-2686 2270-4410 174-1972-483-3719-1965-5228-1487-1505-3852-2404-7080-2686-3022-260-5355 220-6991 1452-1633 1229-2542 2930-2732 5102-236 2710 762 5252 2975 7620l-1782 7574-25255-7080 2173-25006 8843 765-1551 17842 8255 2208c-870-2202-1210-4398-1020-6606 363-4191 2203-7620 5499-10262 3309-2651 7403-3770 12267-3343 4058 352 7587 1839 10561 4473 4075 3591 5862 8227 5368 13927-398 4560-1937 8163-4635 10821-2691 2663-6128 4099-10313 4289zm-10637-38129c33228 0 60176 10574 60176 23601 0 13034-26948 23600-60176 23600s-60171-10566-60171-23599c0-13029 26945-23600 60171-23600v-2zm0-7816c40428 0 73217 17185 73217 38382 0 21191-32789 38374-73217 38374-40426 0-73211-17185-73211-38374 0-21197 32783-38382 73211-38382zm70145 63971c1994 3488 3073 7183 3073 11017 0 21191-32789 38374-73217 38374-40430 0-73213-17185-73213-38374 0-3833 1077-7528 3066-11017 9039 15818 37020 27353 70143 27353 33122 0 61110-11535 70143-27353h4zM99664 22760l-830 9530-35932-3119c2965 3765 5016 8076 6152 12937l-8648-755c-594-2542-1902-5390-3915-8502-2029-3119-4508-5350-7449-6693l675-7736 49944 4341 2-2zM73217 7818c33228 0 60171 10566 60171 23600 0 13029-26945 23595-60171 23595-33228 0-60171-10567-60171-23595 0-13034 26943-23600 60171-23600zm0-7818c40428 0 73211 17185 73211 38374 0 21190-32783 38374-73211 38374S0 59563 0 38374C0 17183 32789 0 73217 0zm70145 63965c1994 3494 3066 7189 3066 11016 0 21192-32783 38382-73211 38382S0 96173 0 74981c0-3828 1078-7522 3073-11016 9033 15824 37020 27358 70143 27358s61104-11535 70143-27358h2zM21727 219763C8312 212807 0 203156 0 192488c0-4265 1332-8371 3787-12204 3411 5335 8998 10148 16209 14147-170 2228-257 4481-257 6753 0 6377 690 12590 1987 18580zm594-39719C8560 173068 1 163289 1 152464c0-4064 1210-7972 3443-11651 4754 7825 14167 14562 26530 19314-3320 6229-5908 12905-7652 19917z"/></svg>