<svg xmlns="http://www.w3.org/2000/svg" viewBox="0 0 1156.78 1333.34" shape-rendering="geometricPrecision" text-rendering="geometricPrecision" image-rendering="optimizeQuality" fill-rule="evenodd" clip-rule="evenodd"><path d="M233.96 988.48c10.04-4.84 22.11-.63 26.95 9.41 4.84 10.04.63 22.11-9.41 26.95-17.69 8.57-37.65 11.32-59.97 9-12.05-1.26-24.8-4-38.25-8.11.52 5.19 1.11 10.34 1.79 15.49 1.91 14.57 4.6 29.54 7.96 44.84a20.17 20.17 0 01-2.52 14.94c-11.33 22.88-17.06 42.03-18.07 57.8-1.06 16.52 3.39 28.91 12.05 37.71 9.65 9.8 24.88 16.3 44.05 19.91 30.61 5.77 69.86 3.97 112.54-3.7 40.7-7.31 86.43-19.05 128.53-35.37 34.21-13.26 65.86-29.52 90.01-48.82 23.62-18.87 34.48-49.81 43.76-76.24 1.93-5.5 3.78-10.78 4.61-13.04l2.7-7.32c11.6-31.94 31.75-87.36 57.97-107.54 8.81-6.8 21.48-5.18 28.3 3.64 6.81 8.82 5.18 21.49-3.64 28.3-16.96 13.05-34.55 61.46-44.69 89.36-2.09 5.76-1.67 4.68-2.7 7.48-2.18 5.91-3.32 9.16-4.46 12.41-11.06 31.52-24.03 68.45-56.72 94.57-27.45 21.93-62.76 40.16-100.6 54.83-8.59 3.33-17.32 6.48-26.13 9.45.38 13.19-.09 26.4-1.38 39.61-1.79 18.46-5.12 36.56-9.86 54.3-2.88 10.78-13.96 17.19-24.74 14.3-10.78-2.88-17.18-13.96-14.3-24.74 4.26-15.96 7.22-31.85 8.76-47.67.76-7.78 1.18-15.63 1.25-23.56a804.374 804.374 0 01-69.56 15.72c-47.37 8.51-91.63 10.39-127.08 3.7-27.12-5.11-49.62-15.28-65.39-31.3-16.76-17.02-25.44-39.63-23.59-68.54 1.26-19.67 7.61-42.37 19.93-68.33-2.76-13.33-5.1-27.16-6.98-41.5a531.54 531.54 0 01-4.13-48.33c-.06-.57-.09-1.16-.09-1.74-.14-.69-.24-1.39-.31-2.1-2.88-30.53-3.28-60.26-3.68-90.3l-.09-7-46.69-2.74-.58-.04c-12.13-.48-23.07-3.99-32.19-9.95-8.86-5.78-15.92-13.74-20.65-23.35-4.52-9.19-6.9-19.85-6.66-31.5.34-16.11 5.74-34.19 17.6-52.65l49.93-102.08c24.48-50.06 24.22-56.68 23.17-82.89-.47-11.78-1.07-26.93-.33-49.61.89-27 3.9-52.83 9.75-77.09 4.13-17.13 9.67-33.45 16.84-48.8l-90.79-39.63c-10.21-4.45-14.88-16.34-10.43-26.56.61-1.4 1.36-2.69 2.22-3.87C234.94 50.41 480.14-31.03 687.49 9.86 808.6 33.74 916.5 99.54 998.19 188.9c81.58 89.24 137.08 202.09 153.5 320.19 27.02 194.35-50.98 402.5-291.17 543.32a20.216 20.216 0 01-6.51 2.43c.15 29.49 1.97 58.08 5.37 85.83 6.72 54.95 19.57 106.41 37.81 154.81 3.93 10.43-1.34 22.08-11.78 26.01-10.43 3.93-22.07-1.35-26-11.78-19.43-51.55-33.09-106.12-40.19-164.13-7.07-57.83-7.62-119.28-.87-184.78 1.13-11.09 11.04-19.15 22.13-18.02 11.09 1.13 19.15 11.05 18.02 22.13a869.973 869.973 0 00-3.4 43.69c211.94-130.85 280.96-318.72 256.59-493.97-15.3-110.02-67.07-215.24-143.22-298.54C892.43 132.92 792.14 71.7 679.74 49.53c-188.53-37.17-412 36.05-614.04 300.31l86.28 37.66c1.19.43 2.36.99 3.48 1.67 9.56 5.76 12.64 18.18 6.88 27.74-10.51 17.45-17.97 36.8-23 57.63-5.18 21.44-7.85 44.55-8.65 68.87-.69 21.11-.11 35.54.33 46.77 1.37 34.24 1.72 42.89-27.28 102.18L53.61 794.84a21.06 21.06 0 01-1.6 2.99c-7.92 12.13-11.51 23.16-11.7 32.36-.1 4.96.81 9.3 2.55 12.84 1.53 3.11 3.73 5.63 6.43 7.39 3.12 2.04 7.02 3.26 11.52 3.48.54-.01 1.09 0 1.64.03l57.88 3.41c1.85-.61 3.82-.95 5.87-.99.69-.02 1.37.01 2.05.07l.01-.07 53.31 4.57c11.13.92 19.42 10.69 18.5 21.81-.91 11.13-10.68 19.41-21.81 18.5l-1.04-.09-30.08-1.77.06 4.15c.35 26.24.7 52.22 2.78 78.47 16.87 6.31 32.09 10.33 45.68 11.74 14.87 1.55 27.64-.04 38.31-5.21v-.01zm377.87-636.7c9.97-15.56 23.22-23.89 37.09-26.78 13.19-2.74 26.68-.37 38.33 5.51 11.48 5.79 21.31 15.08 27.35 26.28 2.27 4.21 4.02 8.67 5.15 13.29 6.77-.13 13.67 1.03 20.39 3.3 12.74 4.31 25 12.73 34.45 23.92 9.5 11.25 16.28 25.4 18 41.13.79 7.23.51 14.77-1.07 22.47 6.98 6.25 12.76 13.28 17.16 20.79 6.77 11.59 10.3 24.41 9.93 37.46-.38 13.13-4.71 26.28-13.66 38.4-5.64 7.63-13.07 14.82-22.46 21.26.87 20.09-5.07 38.11-14.69 52.04-10.87 15.75-26.63 26.41-42.96 29.3-3.59 13.99-12.89 26.29-24.85 34.86-15.14 10.85-34.9 15.94-52.94 10.99-13.3-3.65-25.42-12.44-33.74-27.95-10.12 17.05-24 26.06-38.53 29.08-17.44 3.63-35.5-1.73-49.11-12.33-10.88-8.47-19.05-20.39-21.98-33.9-5.71-.23-11.48-1.36-17.12-3.26-12.44-4.21-24.43-12.35-33.79-23.17-9.39-10.85-16.24-24.49-18.38-39.68-1.11-7.91-.94-16.19.8-24.68-6.11-5.53-11.35-11.79-15.5-18.54-7.15-11.62-11.11-24.7-10.96-38.14.16-13.56 4.46-27.28 13.82-40.02 5.44-7.41 12.61-14.48 21.69-20.96a90.86 90.86 0 01-.02-7.38c.74-19.77 8.02-37.16 18.65-50.13 11.01-13.43 25.77-22.26 40.91-24.38l.07-.01c.52-2.22 1.18-4.41 1.96-6.54 4.88-13.23 14.91-24.5 27.21-31.67 12.38-7.21 27.24-10.37 41.74-7.35 13.86 2.88 27.12 11.21 37.09 26.78zm107.2 45.1c-2.21 7.26-6.14 14.58-12.13 21.7-4.57 5.43-12.68 6.13-18.11 1.56s-6.13-12.68-1.57-18.11c9.69-11.5 9.77-23.57 4.68-33.02-3.52-6.54-9.36-12.02-16.24-15.48-6.71-3.39-14.29-4.79-21.48-3.29-9.6 2-18.92 9.43-25.37 24.56.11.67.16 1.36.16 2.06v265.83c.22.65.38 1.32.5 2.02 3.72 22.51 13.43 33.34 24.39 36.35 10.1 2.77 21.73-.48 31.02-7.13 9.1-6.52 15.6-16.09 15.69-26.12.11-11.43-8.3-24.37-30.79-35.85-6.37-3.25-8.89-11.05-5.63-17.41 3.25-6.36 11.05-8.89 17.41-5.63 24.83 12.68 37.88 28.23 42.7 43.94 7.99-2.6 15.72-8.67 21.57-17.14 7.35-10.66 11.54-24.96 9.54-41.02-1.17-5.5 1.22-11.37 6.35-14.36 9.73-5.69 16.9-12.02 21.79-18.64 5.53-7.49 8.2-15.43 8.43-23.22.22-7.87-2.04-15.82-6.37-23.23-3.96-6.77-9.59-13.01-16.59-18.29-4.92-3.28-7.23-9.56-5.25-15.43 2.37-7 3.01-13.82 2.31-20.23-1.1-10.06-5.56-19.26-11.82-26.68-6.32-7.48-14.37-13.07-22.62-15.86-4.27-1.44-8.53-2.11-12.53-1.84v-.01zM504.94 634.2c5.13-16.15 18.69-32.26 44.25-45.31 6.37-3.25 14.16-.73 17.41 5.63 3.25 6.37.73 14.16-5.63 17.41-23.7 12.1-32.61 25.97-32.59 38.09.01 9.44 5.39 18.29 13.22 24.39 7.94 6.19 18.22 9.37 27.89 7.35 12.08-2.51 23.72-13.67 29.74-38.01V387.99c-6.05-24.16-17.67-35.26-29.72-37.76-7.95-1.65-16.37.24-23.57 4.43-7.28 4.24-13.14 10.73-15.91 18.24-3.69 10-1.5 22.31 11 33.89 5.21 4.82 5.53 12.95.71 18.16-4.82 5.21-12.95 5.53-18.16.71-9.74-9.02-15.74-18.58-18.74-28.11-7.66 1.82-15.25 6.91-21.35 14.35-7.16 8.74-12.07 20.56-12.58 34.11-.13 3.61.05 7.39.6 11.32h-.02c.7 5.08-1.57 10.33-6.21 13.19-9.37 5.77-16.33 12.11-21.17 18.7-5.89 8.01-8.59 16.41-8.69 24.52-.09 8.23 2.43 16.4 6.98 23.79 3.83 6.22 9.11 11.91 15.52 16.67 4.81 3.31 7.06 9.52 5.09 15.32-2.54 7.51-3.09 14.8-2.14 21.59 1.38 9.78 5.89 18.69 12.1 25.86 6.24 7.21 14.1 12.59 22.17 15.32 3.32 1.12 6.63 1.77 9.81 1.89zm2.94-181.77c5.07-4.99 13.23-4.92 18.22.15 4.98 5.07 4.92 13.23-.15 18.22-11.04 10.86-16.8 24.88-17.4 39.23-.61 14.78 4.19 29.94 14.29 42.46 4.46 5.54 3.58 13.65-1.97 18.11-5.54 4.46-13.65 3.57-18.11-1.97-14.09-17.49-20.8-38.78-19.94-59.61.86-20.71 9.16-40.94 25.07-56.59zm182.75 12.39c-5.77-4.18-7.06-12.24-2.88-18.02 4.18-5.76 12.24-7.06 18.01-2.87 2.57 1.87 4.99 3.83 7.27 5.89 16.8 15.14 25.95 35.11 27.63 55.79 1.67 20.48-4.04 41.63-16.94 59.37-1.9 2.61-3.95 5.14-6.15 7.58-4.76 5.29-12.92 5.72-18.21.96-5.3-4.76-5.72-12.92-.96-18.21 1.59-1.77 3.07-3.59 4.43-5.46 9.21-12.67 13.29-27.7 12.11-42.22-1.17-14.31-7.51-28.14-19.16-38.64a64.134 64.134 0 00-5.15-4.17zm-260.25-229.8c-6.35-10.96-2.61-25 8.35-31.35 10.96-6.35 25-2.61 31.35 8.35l29.47 51.04c6.35 10.97 2.61 25-8.35 31.35-10.96 6.35-25 2.61-31.35-8.35l-29.47-51.04zM595.41 181c0-12.7 10.3-23 23-23s23 10.3 23 23v58.93c0 12.7-10.3 23-23 23s-23-10.3-23-23V181zm170.04 35.85c6.3-10.96 20.3-14.74 31.26-8.44 10.96 6.3 14.75 20.3 8.44 31.27l-29.46 51.04c-14.99 26.08-54.7 3.27-39.71-22.82l29.47-51.04zm129.27 115.94c10.96-6.35 25-2.61 31.35 8.35 6.35 10.96 2.61 25-8.35 31.35l-51.04 29.47c-10.96 6.35-25 2.61-31.35-8.35-6.35-10.97-2.61-25 8.35-31.35l51.04-29.47zm54.02 165.02c12.7 0 23 10.3 23 23s-10.3 23-23 23h-58.93c-12.7 0-23-10.3-23-23s10.3-23 23-23h58.93zm-35.85 170.05c10.96 6.3 14.75 20.3 8.44 31.26-6.3 10.96-20.3 14.75-31.26 8.44l-51.04-29.46c-10.96-6.3-14.74-20.3-8.44-31.26 6.3-10.96 20.3-14.75 31.27-8.44l51.04 29.47zM796.96 797.13c6.35 10.96 2.61 25-8.36 31.35-10.96 6.35-25 2.61-31.35-8.35l-29.47-51.04c-6.35-10.96-2.61-25 8.35-31.35 10.96-6.35 25-2.61 31.35 8.36l29.47 51.04zm-165.02 54.02c0 12.7-10.3 23-23 23s-23-10.3-23-23v-58.94c0-12.7 10.3-23 23-23s23 10.3 23 23v58.94zM461.89 815.3c-6.3 10.96-20.3 14.75-31.27 8.44-10.96-6.3-14.74-20.3-8.44-31.26l29.46-51.04c6.3-10.96 20.3-14.74 31.27-8.44 10.96 6.3 14.75 20.3 8.44 31.26l-29.47 51.04zM332.62 699.37c-10.96 6.35-25 2.61-31.36-8.35-6.35-10.96-2.61-25 8.36-31.35l51.04-29.47c10.96-6.35 25-2.61 31.35 8.35 6.35 10.96 2.61 25-8.35 31.35l-51.04 29.47zM278.6 534.34c-12.7 0-23-10.3-23-23s10.3-23 23-23h58.93c12.7 0 23 10.3 23 23s-10.3 23-23 23H278.6zm35.85-170.04c-10.96-6.3-14.74-20.3-8.44-31.27 6.3-10.96 20.3-14.75 31.27-8.44l51.04 29.47c10.97 6.3 14.75 20.3 8.44 31.26-6.3 10.96-20.3 14.74-31.26 8.44l-51.04-29.47z" fill-rule="nonzero"/></svg>