<svg xmlns="http://www.w3.org/2000/svg" viewBox="0 0 1333.35 1046.5" shape-rendering="geometricPrecision" text-rendering="geometricPrecision" image-rendering="optimizeQuality" fill-rule="evenodd" clip-rule="evenodd"><path d="M547.27 900.7c36.94 108.66 191.2 112.66 225.87 0 40.83 36.75 161.64 44.1 206.61 69.19 14.21 7.91 27.03 18.02 37.39 31.64 6.91 9.16 16.18 26.06 23.17 44.96H280.07c7.02-18.9 16.27-35.8 23.2-44.96 10.32-13.63 23.17-23.73 37.39-31.64 44.96-25.09 165.75-32.45 206.61-69.19zm567.98-400.2h-86.04c-13.19 0-24.48 4.66-33.89 13.93-9.38 9.3-13.93 20.59-13.93 33.89v83.93c0 13.3 4.66 24.59 13.93 33.89 9.3 9.3 20.59 13.93 33.89 13.93h36.94c-2.72 10.54-6.11 20.56-10.33 29.97-4.11 9.49-11.21 18.57-20.9 27.23 18.68-4.86 35.25-12.13 49.93-21.73 14.54-9.52 27.23-21.45 37.69-35.47h31.64c13.21 0 24.51-4.75 33.89-13.93 9.41-9.3 13.93-20.59 13.93-33.89v-83.93c0-13.21-4.63-24.48-13.93-33.89-9.27-9.38-20.57-13.93-33.89-13.93h-38.94zm218.1 96.39v83.93c0 7.57-1.36 14.76-4.13 21.4-2.72 6.66-6.74 12.69-12.24 18.07-2.33 2.31-4.86 4.44-7.39 6.22-2.63 1.91-5.38 3.47-8.13 4.85-.11.11-.31.11-.42.22-3.58 1.69-7.27 2.83-11.07 3.69-4.02.83-8.16 1.28-12.35 1.28h-26.39c.53 1.67 1.06 3.36 1.69 5.05 1.56 4.63 3.47 9.27 5.47 13.85v.09c1.8 4.22 4.33 8.24 7.38 12.24 3.19 4.11 7 8.13 11.52 12.26 3.27 2.83 3.61 7.8.64 11.07a7.7 7.7 0 01-7.83 2.44c-9.69-2.56-18.98-5.72-27.65-9.52-8.63-3.8-16.87-8.24-24.59-13.3-7.6-4.97-14.76-10.66-21.43-16.9-5.61-5.28-10.88-11.07-15.85-17.21h-27.65c-5.16 0-10.24-.64-14.99-1.89-4.77-1.25-9.3-3.27-13.63-5.91-3.69-2.22-4.86-7.08-2.64-10.77 2.22-3.69 7.08-4.86 10.77-2.64a37.21 37.21 0 009.61 4.11c3.39.94 7.07 1.39 10.88 1.39h31.56c2.41 0 4.74 1.06 6.33 3.16 4.97 6.63 10.46 12.77 16.48 18.35 5.89 5.61 12.35 10.69 19.32 15.24 6.63 4.3 13.71 8.22 21.2 11.6-1.47-2.44-2.64-4.85-3.8-7.3-2.11-4.86-4.11-9.82-5.91-15.1-1.7-4.94-3.28-10.13-4.64-15.29-.33-.86-.42-1.81-.42-2.75 0-4.33 3.47-7.91 7.91-7.91h36.74c3.17 0 6.11-.33 8.96-.94 2.75-.67 5.28-1.5 7.69-2.56.11-.11.22-.11.33-.22 2-.94 4-2.11 5.8-3.36 1.92-1.39 3.69-2.86 5.39-4.66 3.91-3.89 6.88-8.22 8.74-12.88 1.91-4.64 2.86-9.8 2.86-15.41v-83.9c0-5.61-.94-10.77-2.86-15.43-1.86-4.63-4.83-8.96-8.74-12.88-3.91-3.91-8.24-6.85-12.88-8.74-4.63-1.91-9.8-2.86-15.41-2.86h-39.08c-4.33 0-7.88-3.5-7.88-7.91 0-4.33 3.47-7.94 7.88-7.94h39.08c7.61 0 14.65 1.39 21.32 4.13 6.66 2.75 12.55 6.74 18.04 12.13 5.38 5.39 9.52 11.41 12.13 18.07 2.78 6.63 4.14 13.71 4.14 21.32h.11zM162.45 439.13c-.75 0-1.42-.11-2.08-.33-3.41 0-6.3-2.75-6.3-6.28v-12.35H93.2v12.35c0 3.19-2.53 5.94-5.63 6.16-.64.22-1.42.33-2.19.33H62.43v25.59h120.12v-25.59h-20.29l.2.11zM56.48 593.2c6.83 0 12.38 5.55 12.38 12.38 0 6.83-5.55 12.38-12.38 12.38-6.85 0-12.38-5.55-12.38-12.38 0-6.83 5.52-12.38 12.38-12.38zm-14.29-30.48a5.578 5.578 0 011.52-7.74c2.56-1.69 6.02-1.03 7.72 1.52l3.06 4.5 12.02-14.63c1.94-2.39 5.47-2.72 7.85-.78 2.39 1.97 2.69 5.47.75 7.83l-16.65 20.29c-.36.47-.81.89-1.33 1.25-2.55 1.69-6.02 1-7.72-1.55l-7.21-10.69zm0-42.85c-1.72-2.56-1.03-6 1.52-7.72 2.56-1.69 6.02-1.03 7.72 1.53l3.06 4.5 12.02-14.63c1.94-2.39 5.47-2.72 7.85-.75 2.39 1.94 2.69 5.44.75 7.83l-16.65 20.26c-.36.47-.81.89-1.33 1.25-2.55 1.69-6.02 1.03-7.72-1.53L42.2 519.9v-.03zm128.89 189.95c-1.11 1-2.66 1.67-4.19 1.67-.33 0-.67 0-1-.11H13.9c-3.75 0-7.3-1.56-9.83-4.08-2.55-2.55-4.08-5.96-4.08-9.82V456.79c0-3.86 1.53-7.27 4.08-9.83 2.53-2.52 5.97-4.08 9.83-4.08h36.17v-6.83c0-2.56 1-4.86 2.78-6.61a9.243 9.243 0 016.6-2.78h21.37v-8.61c0-2.86 1.22-5.41 3.11-7.27 1.89-1.89 4.41-3.08 7.27-3.08h65.2c2.86 0 5.41 1.19 7.3 3.08 1.86 1.86 3.08 4.41 3.08 7.27v8.61h19.29c2.53 0 4.86 1.11 6.61 2.78 1.67 1.64 2.78 4.05 2.78 6.61v6.83h36.17c3.86 0 7.3 1.56 9.82 4.08 2.53 2.56 4.08 5.97 4.08 9.83v173.64c.5 2.5 0 4.41-1.86 6.27l-71.83 72.69c-.2.22-.31.33-.53.44h-.22zm-10.49-10.91c0-83.13-10.49-73.24 72.25-73.24V456.78c0-.33-.11-.78-.44-1-.22-.22-.56-.42-1-.42h-36.16v12.55c0 2.55-1 4.85-2.75 6.63-1.67 1.67-4 2.74-6.63 2.74H59.35c-2.52 0-4.97-1.08-6.61-2.74-.25-.22-.36-.44-.58-.67-1.3-1.64-2.19-3.74-2.19-5.94v-12.57H13.81c-.33 0-.78.11-1 .42-.22.22-.44.67-.44 1v240.69c0 .44.11.78.44 1 .22.22.56.44 1 .44H160.6zm-58.67-88.98c-3.41 0-6.27-2.78-6.27-6.3 0-3.41 2.75-6.28 6.27-6.28h59.67c3.41 0 6.28 2.75 6.28 6.28 0 3.41-2.75 6.3-6.28 6.3h-59.67zm0-89.71c-3.41 0-6.27-2.75-6.27-6.27 0-3.41 2.75-6.3 6.27-6.3h91.87c3.44 0 6.3 2.78 6.3 6.3 0 3.41-2.75 6.27-6.3 6.27h-91.87zm0 44.85a6.27 6.27 0 01-6.27-6.28c0-3.44 2.75-6.3 6.27-6.3h91.87c3.44 0 6.3 2.75 6.3 6.3 0 3.42-2.75 6.28-6.3 6.28h-91.87zm667.2-519.96C741.25 17.22 702.73-.02 660.21-.02c-42.55 0-81.07 17.24-108.94 45.13-27.87 27.87-45.1 66.39-45.1 108.91 0 42.52 17.24 81.04 45.1 108.94 27.89 27.87 66.39 45.1 108.94 45.1 42.52 0 81.04-17.24 108.91-45.1 27.89-27.87 45.13-66.39 45.13-108.94 0-42.52-17.24-81.04-45.13-108.91zM657.57 79.22h-19.51a.989.989 0 00-.97.97v102.19h95.59c.25 0 .5-.14.67-.31.19-.17.3-.42.3-.69v-19.51a.989.989 0 00-.97-.97h-68.61c-3.06 0-5.52-2.47-5.52-5.52V80.19c0-.2-.06-.39-.17-.56l-.14-.11a.894.894 0 00-.67-.3zm2.64-54.04c35.56 0 67.8 14.43 91.09 37.72 23.32 23.34 37.78 55.56 37.78 91.12 0 35.58-14.43 67.83-37.78 91.12-23.29 23.32-55.51 37.74-91.09 37.74-35.58 0-67.8-14.43-91.12-37.74-23.32-23.29-37.75-55.54-37.75-91.12 0-35.56 14.43-67.78 37.75-91.12 23.32-23.29 55.54-37.72 91.12-37.72zm-509.06 981.77c5.7 12.78-.04 27.77-12.82 33.48-12.78 5.7-27.77-.04-33.48-12.82-14.24-31.71-25.8-64.77-34.36-98.85-8.41-33.45-14.01-68.04-16.54-103.48-.98-13.99 9.56-26.13 23.54-27.12 13.99-.98 26.13 9.56 27.12 23.54a548.45 548.45 0 0015.14 94.74c7.91 31.46 18.46 61.72 31.38 90.5zm134.38-633.28c-10.42 9.32-26.44 8.43-35.76-1.99-9.32-10.42-8.43-26.44 1.99-35.76 23.68-21.16 51.47-42.85 80.1-61.52 25.66-16.74 52.23-31.22 77.5-41 13.06-5.04 27.74 1.45 32.78 14.5 5.04 13.06-1.45 27.74-14.5 32.78-21.78 8.43-45.2 21.25-68.16 36.22-26.52 17.3-52.17 37.3-73.94 56.76zm592.45-92.06c-12.78-5.76-18.48-20.8-12.72-33.58 5.76-12.78 20.8-18.48 33.58-12.72a599.227 599.227 0 01111.66 65.82c34.65 25.85 66.54 55.52 95.06 88.43 9.16 10.59 8 26.6-2.58 35.76-10.59 9.16-26.6 8-35.76-2.58-25.87-29.85-55.09-56.99-87.11-80.87-31.65-23.61-65.87-43.87-102.13-60.25zm318.47 573.44c1.81-13.88 14.53-23.66 28.41-21.85 13.88 1.81 23.66 14.53 21.85 28.41-3.79 28.63-9.54 56.45-17.09 83.31a594.076 594.076 0 01-28.73 79.87c-5.65 12.83-20.64 18.66-33.48 13.01-12.83-5.65-18.66-20.64-13.01-33.48a545.578 545.578 0 0026.35-73.12c7-24.91 12.29-50.35 15.7-76.16zM518.96 675.51c-7.77.31-13.63 1.92-17.62 4.61-2.28 1.55-3.97 3.5-5.06 5.83-1.19 2.61-1.75 5.74-1.63 9.35.3 10.63 5.88 24.54 16.62 40.52l.17.22 34.91 55.54c14.02 22.29 28.7 44.99 46.93 61.67 17.54 16.04 38.83 26.89 66.97 26.95 30.48.08 52.79-11.19 70.89-28.12 18.82-17.62 33.67-41.8 48.29-65.89l39.33-64.81c7.33-16.7 9.99-27.92 8.33-34.47-1-3.91-5.3-5.83-12.66-6.19-1.56-.08-3.17-.11-4.8-.06-1.75.06-3.61.17-5.49.33-1.06.11-2.08.03-3.03-.19-3.52.19-7.11-.06-10.8-.58l13.46-54.07c-99.97 15.74-174.75-58.51-280.41-14.85l7.63 64.72c-4.28.2-8.3.06-12.05-.53zm308.88-12.52c9.69 2.97 15.91 9.1 18.43 19.04 2.83 10.99-.25 26.54-9.57 47.71l-.03-.03c-.17.39-.36.78-.58 1.14l-39.8 65.56c-15.35 25.26-30.92 50.57-51.71 70.05-21.51 20.15-48.04 33.56-84.32 33.47-33.86-.08-59.37-13.02-80.27-32.14-20.2-18.49-35.67-42.33-50.35-65.7l-34.91-55.51c-12.77-19.04-19.4-36.47-19.82-50.74-.19-6.72.94-12.82 3.44-18.18 2.58-5.61 6.61-10.3 11.99-13.96 2.52-1.69 5.35-3.13 8.46-4.3-2.25-30.14-3.11-62.53-1.64-94.31.75-7.52 2.19-15.07 4.3-22.59 8.91-31.89 31.31-46.46 59-64.11 15.27-9.71 32-17.07 49.46-22.01 11.05-3.14-9.44-38.61 2.03-39.77 55.43-5.69 145.15 44.93 183.88 86.82 19.4 20.98 31.56 37.69 34.17 74.5L827.83 663z"/></svg>